<svg id="Layer_1" data-name="Layer 1" viewBox="0 0 220.72 48.69" xmlns="http://www.w3.org/2000/svg">
  <defs>
    <style>.cls-1{fill:#fff;}</style>
  </defs>
  <title>PEF_CZ_bila-budpefak-test-without-text</title>
  <g id="PEFák">
    <path class="cls-1" d="M23.79,5.21h13.6A12.34,12.34,0,0,1,46.23,8.4a11.06,11.06,0,0,1,3.36,8.41,13.52,13.52,0,0,1-1.65,6.49,10.32,10.32,0,0,1-5,4.59,15.19,15.19,0,0,1-5.7,1.57l-5,.12V45H23.79Zm8.39,7.15V22.53h3.33a5.26,5.26,0,0,0,5.21-5.21A4.46,4.46,0,0,0,39,13.57a7.85,7.85,0,0,0-4.9-1.34Z"></path>
    <path class="cls-1" d="M51.93,5.21H74.3v7.87H60.5v8H74.3v7.75H60.5v8.24H74.3V45H51.93Z"></path>
    <path class="cls-1" d="M77,5.21H99.35V12.9H85.48V21H99.35v7.75H85.54V45H77Z"></path>
    <path class="cls-1" d="M118.89,45V40.51h-.12a13.5,13.5,0,0,1-3.67,3.77,8.36,8.36,0,0,1-4.57,1.16,9.72,9.72,0,0,1-7.78-3.93,14.64,14.64,0,0,1-3.21-9.57A14.18,14.18,0,0,1,103,22.39a10.41,10.41,0,0,1,8.12-4,8,8,0,0,1,4,1,15.8,15.8,0,0,1,3.79,3.18V19h7.75V45Zm-5.69-18.8A4.83,4.83,0,0,0,109.35,28a6.91,6.91,0,0,0-1.54,4.62,5.93,5.93,0,0,0,1.47,4.19,5,5,0,0,0,3.86,1.59,5.09,5.09,0,0,0,3.93-1.83,6.43,6.43,0,0,0,1.64-4.44,6,6,0,0,0-1.64-4.19A5.1,5.1,0,0,0,113.2,26.16ZM109.62,15l4.24-9h9.48L115,15Z"></path>
    <path class="cls-1" d="M129.5,4.54h7.69V29.08l7.68-10.16h9.3l-8.64,11.47L154.9,45h-8.71l-9-13.79V45H129.5Z"></path>
  </g>
  <g id="buď">
    <path class="cls-1" d="M0,45.15V41.4H8.7a4.9,4.9,0,0,1-2-3.81,5,5,0,0,1,1.95-3.9A7,7,0,0,1,13.37,32a6.8,6.8,0,0,1,4.52,1.62,4.84,4.84,0,0,1,1.93,3.78,3.85,3.85,0,0,1-.54,2,9.13,9.13,0,0,1-1.73,2h2v3.72ZM10.49,38.7a2.39,2.39,0,0,0,.8,1.86,3,3,0,0,0,2.14.75,3,3,0,0,0,2.13-.78,2.57,2.57,0,0,0,.85-2,2.3,2.3,0,0,0-.83-1.81A3.11,3.11,0,0,0,13.49,36a3.12,3.12,0,0,0-2.12.78A2.42,2.42,0,0,0,10.49,38.7Z"></path>
    <path class="cls-1" d="M7,31.66V27.85h6a3.45,3.45,0,0,0,2.18-.67,2,2,0,0,0,.87-1.64,2.19,2.19,0,0,0-.84-1.74,3.16,3.16,0,0,0-2.12-.71H7V19.28h7.32a5,5,0,0,1,3.9,1.78,6.42,6.42,0,0,1,1.58,4.42A6.31,6.31,0,0,1,18.24,30,5.49,5.49,0,0,1,14,31.66Z"></path>
    <path class="cls-1" d="M0,9.18V5.41H19.58V9.1H17.43v.06a4.82,4.82,0,0,1,2.36,4.06,4.59,4.59,0,0,1-1.89,3.69,7.1,7.1,0,0,1-4.61,1.53,7,7,0,0,1-4.65-1.58,4.73,4.73,0,0,1-1.93-3.79A4.46,4.46,0,0,1,7.17,11a6.79,6.79,0,0,1,1.5-1.77ZM.28,3.3V0H3.11A5.51,5.51,0,0,1,6.84,1.64L5.9,2.92A3.45,3.45,0,0,0,3.54,1.68V3.3ZM10.43,12a2.35,2.35,0,0,0,.85,1.72,3.19,3.19,0,0,0,2.3.8,2.9,2.9,0,0,0,2-.71,2.2,2.2,0,0,0,.82-1.71,2.58,2.58,0,0,0-.89-2,3.13,3.13,0,0,0-2.2-.81,2.86,2.86,0,0,0-2,.78A2.54,2.54,0,0,0,10.43,12Z"></path>
  </g>
  <g transform="matrix(0.089964, 0, 0, 0.089964, 174.547379, 3.46329)">
    <path d="M 50.651 1.727 C 37.751 3.927 22.351 12.827 14.051 23.127 C 9.751 28.427 2.351 41.827 2.351 44.227 C 2.351 45.627 18.151 53.727 32.251 59.627 C 60.051 71.327 90.751 79.927 131.851 87.627 C 146.751 90.427 164.451 94.327 171.351 96.227 C 200.351 104.627 214.351 107.327 235.351 108.527 C 266.351 110.327 289.251 107.227 327.351 96.227 C 334.251 94.327 352.051 90.427 366.851 87.627 C 407.951 79.927 438.651 71.327 466.451 59.627 C 480.551 53.727 496.351 45.627 496.351 44.227 C 496.351 43.727 494.851 40.127 492.951 36.227 C 484.051 17.927 466.751 4.827 447.151 1.627 C 439.351 0.427 58.251 0.427 50.651 1.727 Z" fill="#fff" stroke="none"></path>
    <path d="M -0.649 137.027 L -0.649 196.927 L 4.851 186.127 C 11.251 173.627 19.851 160.527 29.151 149.027 L 35.651 140.927 L 46.151 147.727 C 52.051 151.527 60.851 156.727 65.851 159.227 C 70.751 161.827 75.051 164.127 75.351 164.327 C 75.651 164.627 74.451 165.727 72.851 166.927 C 67.751 170.527 56.351 181.827 51.651 187.927 C 42.251 200.027 33.951 218.927 30.751 235.227 C 28.351 247.327 28.351 269.227 30.651 280.427 C 40.351 326.127 72.951 361.327 113.851 370.227 C 124.551 372.527 146.651 372.527 158.951 370.327 C 170.251 368.227 181.851 364.827 193.151 360.127 C 197.951 358.127 202.251 356.427 202.751 356.327 C 203.251 356.227 213.851 374.927 226.251 397.827 C 238.651 420.827 249.051 439.627 249.351 439.627 C 249.651 439.627 260.051 420.827 272.451 397.827 C 284.851 374.927 295.451 356.227 295.951 356.327 C 296.451 356.427 300.751 358.127 305.551 360.127 C 316.851 364.827 328.451 368.227 339.751 370.327 C 352.051 372.527 374.151 372.527 384.851 370.227 C 425.751 361.327 458.351 326.127 468.051 280.427 C 470.351 269.227 470.351 247.327 467.951 235.227 C 464.751 218.927 456.451 200.027 447.051 187.927 C 442.351 181.827 430.951 170.527 425.851 166.927 C 424.251 165.727 423.051 164.627 423.351 164.327 C 423.651 164.127 427.951 161.827 432.851 159.227 C 437.851 156.727 446.651 151.527 452.551 147.727 L 463.051 140.927 L 469.551 149.027 C 478.851 160.527 487.451 173.627 493.851 186.127 L 499.351 196.927 L 499.351 137.027 L 499.351 77.127 L 495.251 84.627 C 472.451 126.427 428.851 155.927 358.351 177.127 C 330.351 185.527 313.751 195.027 296.251 212.527 C 276.651 232.227 263.451 256.327 255.951 286.427 C 252.951 298.327 250.351 312.827 250.351 317.827 C 250.351 319.927 249.951 321.627 249.351 321.627 C 248.851 321.627 248.351 319.927 248.351 317.827 C 248.351 312.827 245.751 298.327 242.751 286.427 C 235.251 256.327 222.051 232.227 202.451 212.527 C 184.951 195.027 168.351 185.527 140.351 177.127 C 69.851 155.927 26.251 126.427 3.451 84.627 L -0.649 77.127 L -0.649 137.027 Z M 151.751 203.627 C 163.851 206.727 172.551 211.827 182.451 221.627 C 189.351 228.427 191.851 231.827 195.151 238.627 C 200.851 250.127 202.451 257.027 202.451 269.627 C 202.451 306.227 174.851 335.327 138.251 337.327 C 106.751 339.127 78.751 319.327 69.151 288.627 C 65.751 277.527 65.951 260.327 69.651 249.127 C 77.151 226.227 94.751 209.627 117.751 203.627 C 127.551 201.027 141.751 201.027 151.751 203.627 Z M 380.551 203.527 C 403.851 209.527 421.451 226.027 429.051 249.127 C 432.751 260.327 432.951 277.527 429.551 288.627 C 419.951 319.327 391.951 339.127 360.451 337.327 C 323.851 335.327 296.251 306.227 296.251 269.627 C 296.251 257.027 297.851 250.127 303.551 238.627 C 308.951 227.527 321.251 214.927 332.051 209.327 C 346.651 201.727 364.851 199.527 380.551 203.527 Z" fill="#fff" stroke="none"></path>
    <path d="M -0.449 392.127 L -0.149 450.127 L 2.551 457.427 C 6.251 467.727 10.851 475.027 17.951 482.027 C 24.951 489.127 32.251 493.727 42.551 497.427 L 49.851 500.127 L 249.351 500.127 L 448.851 500.127 L 456.151 497.427 C 466.451 493.727 473.751 489.127 480.751 482.027 C 487.851 475.027 492.451 467.727 496.151 457.427 L 498.851 450.127 L 499.151 392.127 L 499.451 334.127 L 494.351 342.627 C 476.951 371.527 451.751 393.727 417.951 409.627 C 400.751 417.827 390.551 421.027 334.251 436.127 C 304.351 444.227 273.451 452.527 265.651 454.727 C 257.751 456.827 250.451 458.627 249.351 458.627 C 248.251 458.627 240.951 456.827 233.051 454.727 C 225.251 452.527 194.351 444.227 164.451 436.127 C 134.451 428.127 105.651 419.927 100.451 418.027 C 56.951 401.927 24.851 376.727 4.351 342.627 L -0.749 334.127 L -0.449 392.127 Z" fill="#fff" stroke="none"></path>
    <path fill="#fff" opacity="1.000000" stroke="none" d="M 133.019 307.434 C 109.596 307.034 93.189 285.418 97.701 263.691 C 100.987 247.87 110.092 237.78 125.646 234.232 C 147.758 229.187 168.663 242.886 170.99 266.078 C 173.066 286.768 160.894 302.59 141.424 307.103 C 138.888 307.69 136.137 307.346 133.019 307.434 Z"></path>
    <path fill="#fff" opacity="1.000000" stroke="none" d="M 363.61 305.834 C 340.187 305.434 323.78 283.818 328.292 262.091 C 331.578 246.27 340.683 236.18 356.237 232.632 C 378.349 227.587 399.254 241.286 401.581 264.478 C 403.657 285.168 391.485 300.99 372.015 305.503 C 369.479 306.09 366.728 305.746 363.61 305.834 Z"></path>
  </g>
</svg>