<?xml version="1.0" encoding="UTF-8"?>
<svg xmlns="http://www.w3.org/2000/svg" id="Vrstva_1" data-name="Vrstva 1" viewBox="0 0 136.3 66.23">
    <defs>
        <style>.cls-1{fill:none;}.cls-2{fill:#fff;}</style>
    </defs>
    <title>ČZU - Česká zemědělská univerzita</title>
    <rect class="cls-1" x="-50.6" y="-50.48" width="239.69" height="167.11"></rect>
    <path class="cls-2" d="M121.18,0V45c0,4.13-2.29,8.38-9.82,8.38s-9.82-4.25-9.82-8.38V5.24L86.42,26.82V45c0,10.49,5.81,21.27,24.94,21.27S136.29,55.45,136.29,45V0Z"></path>
    <path class="cls-2" d="M42.73,0V12.55H33c-8.67,0-17.56,4.79-17.56,20.58S24.3,53.7,33,53.7h3.81a10.8,10.8,0,0,0-.1,4.59,11.31,11.31,0,0,0,4.88,7.07l1.24.87H28.24C14.31,66.23,0,58.52,0,33.13,0,22.94,2.3,15.61,6,10.47,1.54,8.24,0,4.09,0,0Z"></path>
    <path class="cls-2" d="M52.88,53l1.47-2.09c4.08-5.83,8.6-5.3,11.8-3.06L64.68,50c-4.08,5.82-8.6,5.3-11.8,3.06m5,6.63c-4.08,5.82-8.61,5.29-11.8,3.05l1.46-2.09c4.08-5.82,8.61-5.29,11.8-3Zm-13,2.22c-3.19-2.23-5.24-6.3-1.16-12.13l1.47-2.09c3.19,2.24,5.24,6.3,1.15,12.13Zm5.62-21.82L52,38c3.2,2.24,5.24,6.31,1.16,12.13l-1.47,2.1C48.5,50,46.45,45.88,50.53,40.05m6.79-9.69,1.46-2.09C62,30.51,64,34.58,59.94,40.41L58.48,42.5c-3.2-2.24-5.24-6.31-1.16-12.14m6.78-9.68,1.47-2.09c3.19,2.23,5.24,6.3,1.16,12.13l-1.47,2.09C62.07,30.57,60,26.5,64.1,20.68m15.61,7.81-1.46,2.09c-4.08,5.83-8.61,5.3-11.8,3.06l1.46-2.09c4.08-5.83,8.61-5.3,11.8-3.06M72.94,16.36c2.42-3.47,5-4.32,7.31-3.89,1.19,2,1.28,4.74-1.14,8.21s-5,4.31-7.32,3.88c-1.19-2-1.28-4.74,1.15-8.2M71.46,40.27c-4.08,5.83-8.6,5.3-11.79,3.06l1.46-2.09c4.08-5.83,8.6-5.3,11.8-3.06ZM89.19,61.22a20.46,20.46,0,0,1-4.56-7.52H63.89L101.48,0H99.65L83.36,23.29c-1.67,2.38-3.52,2.16-4.82,1.25L95.7,0H93.93L83.58,14.8c-1.3-.91-2.14-2.57-.47-5L90,0H88.22l-6.3,9c-1.66,2.38-3.51,2.16-4.82,1.25L84.28,0H82.51L69.68,18.34c-1.3-.92-2.14-2.58-.47-5L78.56,0H45.94V12.55H68L45.27,45l-3,4.22C37.53,56,39.93,60.79,43.68,63.42l1.39,1a9.44,9.44,0,0,0,5.32,1.84H96.64a21.93,21.93,0,0,1-7.45-5"></path>
</svg>
